<?xml version="1.0" standalone="no"?>
<!DOCTYPE svg PUBLIC "-//W3C//DTD SVG 20010904//EN"
 "http://www.w3.org/TR/2001/REC-SVG-20010904/DTD/svg10.dtd">
<svg version="1.0" xmlns="http://www.w3.org/2000/svg"
 width="500.000000pt" height="500.000000pt" viewBox="0 0 500.000000 500.000000"
 preserveAspectRatio="xMidYMid meet">

<g transform="translate(0.000000,500.000000) scale(0.100000,-0.100000)"
fill="#6225C5" stroke="none">
<path d="M635 3224 c-298 -48 -527 -247 -606 -529 -32 -112 -32 -268 0 -380
71 -252 265 -442 521 -511 87 -24 262 -24 350 -1 204 53 384 198 474 381 54
110 70 183 70 321 0 138 -16 211 -70 321 -89 181 -272 329 -469 379 -63 16
-218 27 -270 19z m210 -89 c145 -26 287 -112 386 -235 154 -192 180 -457 68
-686 -45 -91 -59 -97 -38 -16 75 286 -97 583 -386 668 -131 38 -304 16 -425
-54 -111 -64 -214 -194 -252 -317 -27 -85 -29 -233 -4 -310 8 -27 14 -51 12
-53 -7 -6 -73 120 -90 171 -54 163 -43 320 36 486 57 120 169 232 289 289 46
22 109 45 139 51 30 6 64 13 75 15 42 8 113 5 190 -9z m-45 -336 c238 -37 417
-263 397 -499 -3 -36 -14 -89 -25 -118 -20 -52 -71 -146 -77 -140 -1 2 2 31 8
66 34 201 -115 403 -318 430 -215 28 -400 -107 -434 -317 -6 -34 -8 -67 -6
-74 2 -7 6 -34 9 -62 l6 -50 -30 45 c-47 71 -74 162 -74 255 0 232 162 424
394 465 64 11 77 11 150 -1z m33 -355 c25 -8 66 -33 91 -55 130 -115 136 -316
13 -437 -125 -122 -322 -115 -436 14 -75 85 -95 216 -48 317 34 75 69 112 139
146 50 25 74 31 128 31 36 0 87 -7 113 -16z"/>
<path d="M4192 2618 c-28 -28 -3 -72 39 -66 30 4 47 33 33 56 -14 21 -55 27
-72 10z"/>
<path d="M4434 2611 c-50 -31 -55 -55 -52 -281 l3 -205 32 -3 32 -3 3 138 3
138 72 3 c73 3 90 13 77 47 -5 11 -24 15 -80 15 l-74 0 0 34 c0 54 28 80 86
79 27 -1 55 -3 63 -4 22 -6 26 33 5 48 -28 20 -133 17 -170 -6z"/>
<path d="M4000 2551 l0 -71 -55 6 c-71 9 -135 -15 -172 -62 -21 -28 -27 -48
-30 -107 -6 -91 21 -150 81 -181 53 -27 147 -27 201 -1 l40 20 0 230 0 230
-32 3 -33 3 0 -70z m-25 -131 l26 -10 -3 -112 -3 -112 -33 -10 c-45 -12 -107
7 -129 41 -24 36 -24 130 0 167 28 43 86 57 142 36z"/>
<path d="M1855 2475 c-22 -8 -41 -15 -42 -15 -2 0 -3 -12 -3 -26 0 -24 3 -26
28 -20 15 4 52 10 83 13 49 4 60 2 78 -16 11 -11 21 -32 21 -45 0 -22 -5 -24
-72 -31 -122 -11 -160 -38 -160 -110 0 -73 50 -109 152 -109 45 0 78 6 105 19
l40 20 3 120 c3 134 -5 163 -49 189 -42 25 -134 30 -184 11z m165 -235 c0 -57
-14 -70 -77 -70 -102 0 -114 101 -13 113 93 11 90 12 90 -43z"/>
<path d="M2260 2479 c-48 -20 -70 -50 -70 -94 0 -54 29 -81 106 -102 93 -24
121 -65 69 -99 -29 -19 -86 -15 -134 9 -21 10 -32 12 -40 4 -29 -29 5 -63 80
-79 104 -21 189 24 189 100 0 57 -29 88 -98 107 -91 25 -102 32 -102 59 0 35
32 50 89 42 92 -12 95 -12 99 6 2 9 -8 24 -22 33 -31 20 -132 29 -166 14z"/>
<path d="M2658 2480 c-77 -23 -120 -87 -120 -179 0 -103 39 -156 131 -181 72
-19 161 6 161 45 0 32 -6 34 -54 17 -89 -32 -166 21 -166 116 0 87 56 140 134
127 75 -12 81 -11 81 10 0 41 -96 67 -167 45z"/>
<path d="M3015 2478 c-71 -26 -108 -86 -109 -174 0 -80 26 -131 85 -164 82
-45 229 -27 229 30 0 28 -11 31 -61 13 -58 -21 -112 -11 -151 28 -16 16 -28
35 -26 41 3 8 50 19 120 29 64 9 122 20 128 24 17 11 6 82 -17 114 -46 60
-128 85 -198 59z m110 -54 c15 -6 45 -53 45 -72 0 -10 -187 -38 -196 -29 -10
9 24 74 47 91 24 16 74 21 104 10z"/>
<path d="M3420 2481 c-14 -5 -40 -16 -58 -25 l-33 -17 3 -157 3 -157 33 -3 32
-3 0 144 0 144 25 11 c35 16 97 15 121 -2 17 -13 20 -31 24 -153 l5 -138 35 0
35 0 0 140 c0 118 -3 144 -18 167 -32 47 -133 71 -207 49z"/>
<path d="M4192 2303 l3 -178 33 -3 32 -3 -2 178 -3 178 -33 3 -32 3 2 -178z"/>
<path d="M4666 2471 c-13 -21 80 -252 120 -301 l26 -30 -28 -38 c-15 -20 -38
-49 -52 -64 -30 -33 -23 -58 17 -58 42 0 94 63 152 184 51 108 105 277 95 301
-3 9 -18 15 -35 15 -27 0 -31 -4 -41 -42 -19 -74 -71 -228 -79 -232 -4 -3 -30
57 -58 132 -49 131 -53 137 -81 140 -17 2 -33 -1 -36 -7z"/>
</g>
</svg>
