<?xml version="1.0" standalone="no"?>
<!DOCTYPE svg PUBLIC "-//W3C//DTD SVG 20010904//EN"
 "http://www.w3.org/TR/2001/REC-SVG-20010904/DTD/svg10.dtd">
<svg version="1.0" xmlns="http://www.w3.org/2000/svg"
 width="500.000000pt" height="500.000000pt" viewBox="0 0 500.000000 500.000000"
 preserveAspectRatio="xMidYMid meet">

<g transform="translate(0.000000,500.000000) scale(0.100000,-0.100000)"
fill="#6225C5" stroke="none">
<path d="M2260 4609 c-858 -106 -1561 -698 -1796 -1514 -65 -224 -78 -320 -78
-595 0 -275 13 -371 78 -596 197 -685 755 -1243 1440 -1440 225 -65 321 -78
596 -78 207 0 263 4 360 22 896 165 1567 836 1732 1732 18 97 22 153 22 360 0
207 -4 263 -22 360 -165 896 -843 1573 -1732 1732 -132 23 -473 33 -600 17z
m406 -240 c544 -53 1015 -317 1339 -750 453 -607 495 -1430 106 -2080 -34 -57
-73 -117 -86 -133 -22 -27 -21 -23 11 71 65 195 78 283 78 523 0 184 -3 230
-22 317 -49 227 -144 445 -270 623 -86 122 -260 296 -382 382 -180 127 -394
220 -623 270 -88 19 -132 22 -317 22 -185 0 -229 -3 -317 -22 -228 -50 -445
-144 -623 -270 -122 -86 -296 -260 -382 -382 -126 -178 -220 -395 -270 -623
-19 -88 -22 -132 -22 -317 0 -240 13 -327 78 -523 32 -94 33 -98 11 -71 -13
16 -52 76 -86 133 -412 688 -339 1564 183 2179 390 459 1002 709 1594 651z
m-24 -1000 c193 -21 373 -78 533 -170 629 -361 875 -1125 574 -1778 -36 -77
-158 -273 -178 -285 -4 -3 3 36 16 87 34 124 42 333 19 463 -94 544 -557 934
-1106 934 -550 0 -1012 -390 -1107 -935 -22 -129 -13 -338 20 -462 13 -51 20
-90 16 -87 -20 12 -142 208 -178 285 -186 404 -168 874 50 1254 191 333 501
569 869 661 165 41 305 51 472 33z m76 -1020 c305 -77 550 -324 634 -637 29
-109 29 -315 0 -425 -85 -313 -326 -554 -640 -639 -109 -29 -315 -29 -425 0
-313 85 -554 326 -639 640 -29 109 -29 315 0 424 94 349 384 609 734 658 88
12 244 3 336 -21z"/>
</g>
</svg>
