<?xml version="1.0" standalone="no"?>
<!DOCTYPE svg PUBLIC "-//W3C//DTD SVG 20010904//EN"
 "http://www.w3.org/TR/2001/REC-SVG-20010904/DTD/svg10.dtd">
<svg version="1.0" xmlns="http://www.w3.org/2000/svg"
 width="500.000000pt" height="500.000000pt" viewBox="0 0 500.000000 500.000000"
 preserveAspectRatio="xMidYMid meet">

<g transform="translate(0.000000,500.000000) scale(0.100000,-0.100000)"
fill="#6A00FF" stroke="none">
<path d="M2390 4754 c-14 -2 -59 -9 -100 -15 -104 -15 -248 -63 -360 -119
-354 -179 -600 -505 -677 -900 -24 -126 -22 -346 6 -477 55 -261 160 -455 350
-643 112 -112 198 -175 327 -239 350 -175 778 -175 1128 0 128 64 215 127 327
239 188 185 296 384 350 643 28 131 30 351 6 477 -77 393 -324 723 -675 900
-103 51 -229 95 -336 115 -80 16 -298 28 -346 19z m395 -178 c119 -31 293
-115 386 -185 88 -67 210 -197 265 -282 116 -179 172 -354 181 -565 9 -209
-27 -383 -115 -554 -40 -79 -93 -163 -98 -157 -2 1 8 37 21 80 142 445 -74
941 -500 1147 -159 76 -240 95 -425 95 -185 0 -266 -19 -425 -95 -424 -205
-641 -702 -501 -1146 14 -43 24 -80 22 -81 -5 -6 -58 78 -98 157 -88 171 -124
345 -115 554 11 277 113 517 304 716 166 175 353 279 588 330 134 29 371 23
510 -14z m-178 -567 c185 -25 332 -99 469 -234 105 -104 159 -189 206 -326 27
-81 32 -112 36 -221 5 -140 -10 -235 -55 -343 -28 -68 -110 -205 -123 -205 -4
0 -2 21 6 48 71 229 -28 531 -224 687 -123 98 -260 145 -422 145 -162 0 -299
-47 -422 -145 -196 -157 -295 -458 -224 -687 8 -27 10 -48 6 -48 -13 0 -95
137 -123 205 -45 108 -60 203 -55 343 4 109 9 140 36 221 46 133 101 222 201
322 100 100 202 164 324 203 134 43 234 53 364 35z m-6 -599 c131 -25 264
-116 341 -234 109 -168 108 -399 -3 -565 -148 -222 -430 -301 -665 -186 -187
92 -295 264 -295 470 0 206 111 384 294 471 110 52 213 66 328 44z"/>
<path d="M4193 1270 c-85 -18 -127 -53 -148 -124 -12 -39 -15 -113 -15 -343 0
-280 1 -294 20 -313 20 -20 65 -26 87 -12 9 6 13 65 15 217 l3 210 107 3 c95
2 109 5 118 22 6 11 8 31 4 45 -6 25 -7 25 -120 25 l-114 0 0 61 c0 54 3 64
30 91 30 29 33 30 103 26 40 -3 80 -8 89 -12 21 -9 42 26 33 54 -13 42 -125
68 -212 50z"/>
<path d="M3745 1250 c-40 -44 -9 -110 52 -110 40 0 73 30 73 65 0 57 -86 88
-125 45z"/>
<path d="M3453 1253 c-9 -3 -13 -36 -13 -115 l0 -110 -32 9 c-18 4 -65 8 -103
8 -130 0 -224 -70 -256 -190 -16 -58 -7 -202 15 -245 52 -101 136 -145 276
-144 94 0 178 28 205 68 12 17 15 78 15 358 0 293 -2 339 -16 352 -15 15 -65
20 -91 9z m-40 -315 l27 -10 0 -173 0 -172 -25 -11 c-40 -18 -135 -15 -175 6
-52 28 -80 89 -80 177 1 114 39 175 123 196 36 9 88 4 130 -13z"/>
<path d="M138 1037 c-64 -19 -98 -43 -98 -71 0 -40 23 -50 77 -33 74 24 127
29 170 18 51 -14 73 -39 80 -89 l5 -40 -78 -6 c-158 -13 -242 -42 -268 -95
-50 -97 -14 -194 87 -236 116 -48 345 -12 362 58 4 13 5 106 3 208 -3 211 -9
229 -93 269 -57 27 -180 36 -247 17z m232 -377 c0 -93 -6 -100 -104 -107 -100
-7 -160 39 -142 110 11 44 48 56 234 76 9 1 12 -21 12 -79z"/>
<path d="M765 1041 c-89 -22 -135 -74 -135 -154 0 -89 45 -131 175 -163 39 -9
82 -23 97 -31 47 -23 50 -100 5 -125 -41 -22 -136 -15 -202 16 -56 25 -60 26
-72 10 -50 -69 44 -129 202 -129 77 0 96 4 134 25 66 37 86 70 86 140 0 96
-52 143 -195 177 -113 27 -148 73 -94 124 22 20 35 24 87 23 40 0 79 -8 109
-21 33 -15 49 -18 57 -10 17 17 13 62 -8 81 -42 38 -165 56 -246 37z"/>
<path d="M1352 1032 c-118 -42 -173 -121 -180 -257 -10 -198 96 -309 293 -308
106 1 165 31 165 83 0 43 -16 51 -64 29 -58 -26 -140 -25 -191 4 -109 61 -117
265 -13 338 44 32 144 39 199 13 37 -16 41 -16 56 -1 13 13 15 23 7 43 -22 64
-167 93 -272 56z"/>
<path d="M1920 1035 c-61 -20 -115 -67 -147 -129 -23 -44 -27 -63 -28 -141 0
-108 14 -154 67 -211 57 -62 124 -88 228 -88 123 -1 200 33 200 88 0 38 -23
50 -58 32 -120 -62 -267 -27 -309 72 -8 19 -13 35 -11 37 2 1 86 14 187 29
101 14 190 31 197 37 19 16 18 101 -2 147 -19 48 -59 88 -109 114 -51 27 -154
33 -215 13z m155 -89 c19 -8 44 -30 55 -48 21 -34 27 -78 11 -78 -6 0 -72 -9
-147 -20 -75 -11 -139 -18 -141 -16 -8 8 19 91 38 117 38 54 117 73 184 45z"/>
<path d="M2542 1034 c-29 -7 -66 -20 -82 -29 -58 -30 -60 -39 -60 -280 0 -121
4 -225 8 -231 11 -17 49 -26 82 -19 l30 7 0 219 0 220 38 16 c49 21 129 21
168 0 47 -25 54 -58 54 -264 l0 -183 24 -11 c14 -7 40 -9 60 -5 l36 7 0 184
c0 221 -9 274 -56 320 -60 60 -185 81 -302 49z"/>
<path d="M3758 1033 c-17 -4 -18 -26 -18 -274 l0 -269 24 -11 c14 -7 40 -9 61
-5 l36 7 -3 264 c-2 164 -7 268 -13 274 -13 13 -64 21 -87 14z"/>
<path d="M4480 1026 c-26 -33 138 -439 195 -484 l29 -23 -19 -36 c-11 -19 -48
-66 -83 -104 -55 -59 -62 -71 -52 -88 15 -29 47 -43 80 -36 82 18 228 266 314
530 35 110 57 210 50 229 -7 19 -40 29 -79 24 -25 -3 -29 -9 -50 -93 -21 -83
-66 -225 -97 -303 -7 -18 -17 -31 -22 -29 -10 3 -66 142 -122 301 -19 55 -40
106 -46 113 -14 18 -83 17 -98 -1z"/>
</g>
</svg>
