<?xml version="1.0" standalone="no"?>
<!DOCTYPE svg PUBLIC "-//W3C//DTD SVG 20010904//EN"
 "http://www.w3.org/TR/2001/REC-SVG-20010904/DTD/svg10.dtd">
<svg version="1.0" xmlns="http://www.w3.org/2000/svg"
 width="500.000000pt" height="500.000000pt" viewBox="0 0 500.000000 500.000000"
 preserveAspectRatio="xMidYMid meet">

<g transform="translate(0.000000,500.000000) scale(0.100000,-0.100000)"
fill="#6A00FF" stroke="none">
<path d="M3780 3013 c-50 -18 -68 -84 -32 -116 42 -38 122 -7 122 47 0 43 -51
83 -90 69z"/>
<path d="M4192 3010 c-61 -13 -104 -42 -130 -89 -22 -39 -22 -44 -20 -367 l3
-329 26 -9 c14 -5 38 -6 52 -2 l27 6 2 213 3 212 112 3 c110 3 113 3 119 27 3
13 3 33 -1 44 -6 20 -14 21 -122 21 l-115 0 4 65 c6 93 25 110 121 110 39 0
84 -4 99 -8 24 -8 28 -6 34 19 13 51 -26 80 -117 88 -30 3 -73 1 -97 -4z"/>
<path d="M3453 2993 c-9 -3 -13 -36 -13 -115 0 -110 0 -110 -22 -104 -47 14
-144 18 -183 7 -120 -32 -186 -120 -193 -257 -8 -154 44 -252 156 -295 108
-41 272 -23 336 36 l26 24 0 340 c0 295 -2 342 -16 355 -15 15 -65 20 -91 9z
m-39 -314 l26 -12 0 -173 0 -172 -36 -12 c-50 -17 -139 -8 -171 16 -53 40 -67
70 -71 149 -4 81 6 126 41 168 42 52 138 69 211 36z"/>
<path d="M130 2775 c-63 -18 -90 -39 -90 -70 0 -40 23 -49 77 -31 73 24 125
29 169 17 53 -14 76 -41 78 -88 l1 -38 -115 -13 c-130 -14 -192 -38 -220 -85
-61 -99 -12 -216 102 -248 104 -29 281 -4 328 46 20 22 21 30 18 216 -3 183
-4 196 -26 226 -50 70 -199 102 -322 68z m240 -374 c0 -78 0 -79 -30 -91 -43
-18 -139 -16 -177 4 -56 29 -56 107 0 134 16 8 59 17 95 22 123 14 112 21 112
-69z"/>
<path d="M758 2781 c-92 -30 -134 -88 -126 -171 8 -78 44 -108 173 -144 55
-15 108 -35 118 -43 17 -16 23 -69 9 -89 -28 -42 -140 -46 -220 -9 -65 30 -68
30 -82 4 -36 -66 54 -121 200 -122 145 -1 219 50 228 155 3 44 0 59 -20 87
-35 51 -64 68 -168 97 -128 35 -160 73 -104 125 21 20 36 24 87 24 35 0 81 -8
105 -18 53 -21 59 -21 71 1 30 57 -39 103 -164 108 -44 2 -92 0 -107 -5z"/>
<path d="M1367 2776 c-118 -33 -187 -124 -195 -256 -12 -200 94 -314 293 -313
81 0 136 20 160 57 16 24 16 28 1 51 l-16 24 -42 -19 c-60 -27 -142 -26 -192
3 -109 62 -117 265 -13 339 43 31 143 37 198 12 37 -16 41 -16 56 -1 23 23 7
65 -34 89 -42 25 -153 32 -216 14z"/>
<path d="M1920 2775 c-64 -20 -123 -74 -151 -137 -18 -42 -23 -71 -23 -138 0
-67 5 -96 23 -138 45 -100 142 -155 276 -155 139 0 227 57 186 122 -7 11 -18
10 -65 -8 -121 -45 -238 -17 -285 67 -13 24 -22 45 -20 47 2 2 87 15 189 30
216 30 227 36 215 114 -12 83 -58 146 -130 183 -51 27 -154 33 -215 13z m159
-93 c40 -20 68 -56 73 -92 3 -25 2 -25 -142 -46 -80 -12 -148 -20 -151 -18
-10 5 5 63 25 101 32 64 127 90 195 55z"/>
<path d="M2515 2766 c-41 -14 -79 -35 -92 -51 -23 -26 -23 -29 -21 -253 l3
-227 28 -13 c16 -8 40 -11 57 -7 l30 7 0 219 0 218 28 15 c78 39 180 27 212
-27 18 -29 20 -51 20 -219 0 -187 0 -188 24 -203 17 -11 35 -14 60 -9 l36 6 0
192 c0 202 -7 254 -38 295 -57 77 -215 103 -347 57z"/>
<path d="M3753 2773 c-10 -3 -13 -67 -13 -269 l0 -264 24 -15 c17 -11 35 -14
60 -9 l36 6 0 264 c0 260 0 263 -22 278 -22 16 -60 20 -85 9z"/>
<path d="M4487 2767 c-17 -11 -15 -22 28 -145 62 -183 125 -314 163 -342 l31
-23 -31 -46 c-17 -25 -56 -74 -85 -108 l-54 -63 25 -25 c31 -31 60 -32 101 -4
99 68 256 386 316 637 11 46 17 92 14 103 -11 33 -90 40 -105 9 -4 -8 -21 -64
-38 -125 -38 -136 -91 -285 -102 -285 -9 0 -59 124 -124 304 -20 55 -41 105
-47 113 -14 17 -70 17 -92 0z"/>
</g>
</svg>
